<svg width="62" height="62" viewBox="0 0 62 62" fill="none" xmlns="http://www.w3.org/2000/svg">
<circle cx="31" cy="31" r="31" fill="#C3ECEA"/>
<circle cx="31.5" cy="30.5" r="27.5" stroke="#349590" stroke-width="3"/>
<path fill-rule="evenodd" clip-rule="evenodd" d="M36.2045 15.1168C37.8064 14.6592 39.476 15.5867 39.9336 17.1886C40.0106 17.4581 40.0497 17.737 40.0497 18.0173V20.5425H43.0662C44.7322 20.5425 46.0828 21.8931 46.0828 23.5591V41.6582C46.0828 43.3242 44.7322 44.6748 43.0662 44.6748H18.934C17.268 44.6748 15.9175 43.3242 15.9175 41.6582H15.9578C15.931 41.496 15.9175 41.3317 15.9175 41.167V23.1885C15.9175 21.8417 16.8103 20.658 18.1053 20.288L36.2045 15.1168ZM28.1949 41.6582H43.0662V23.5591H40.0497V26.5756H43.0661V29.5921H40.0497V35.9958C40.0497 37.3426 39.1569 38.5262 37.8619 38.8962L28.1949 41.6582ZM18.9337 23.1885V41.1669L37.0328 35.9957V18.0173L18.9337 23.1885ZM34.0166 26.5756C34.0166 27.4086 33.3414 28.0839 32.5084 28.0839C31.6754 28.0839 31.0001 27.4086 31.0001 26.5756C31.0001 25.7426 31.6754 25.0673 32.5084 25.0673C33.3414 25.0673 34.0166 25.7426 34.0166 26.5756Z" fill="#349590"/>
</svg>
