<svg width="62" height="62" viewBox="0 0 62 62" fill="none" xmlns="http://www.w3.org/2000/svg">
<circle cx="31" cy="31" r="31" fill="#C3ECEA"/>
<circle cx="31.5" cy="30.5" r="27.5" stroke="#349590" stroke-width="3"/>
<path fill-rule="evenodd" clip-rule="evenodd" d="M23.342 20.1194C23.0653 20.1188 22.7986 20.1502 22.5452 20.2097C22.1978 19.444 21.7389 18.757 21.217 18.2351C20.3311 17.3493 18.934 17 17 17V20.1155C18.1815 20.1155 18.8613 20.2855 19.014 20.4381C19.6028 21.0269 20.1155 22.2232 20.1155 23.231L20.1311 23.4513L21.6575 34.136C19.1035 34.2685 17.1249 36.2519 17.0019 38.7312L17 40.3662C17.1508 42.927 19.1228 44.8969 21.5848 45.0369L21.9385 45.0374C22.5794 46.8535 24.311 48.1549 26.3465 48.1549C28.3812 48.1549 30.1122 46.8545 30.7538 45.0394H34.4011C35.0426 46.8545 36.7737 48.1549 38.8084 48.1549C41.3894 48.1549 43.4816 46.0626 43.4816 43.4816C43.4816 40.9007 41.3894 38.8084 38.8084 38.8084C36.7737 38.8084 35.0426 40.1088 34.4011 41.9239H30.7538C30.1122 40.1088 28.3812 38.8084 26.3465 38.8084C24.3117 38.8084 22.5807 40.1088 21.9391 41.9239H21.6732C20.8788 41.8762 20.1662 41.1643 20.1127 40.2729L20.1155 38.8084C20.1575 38.0004 20.8652 37.2927 21.7504 37.2488L24.8256 37.2495L24.8479 37.2507H40.5482L40.7781 37.1777C41.9592 36.8029 42.9047 35.9135 43.3524 34.7622L43.5165 34.4374L44.0497 33.381C44.6013 32.2876 45.1529 31.1922 45.6905 30.1221C47.0071 27.5009 47.8352 25.835 48.0186 25.4259C48.9603 23.3251 47.0527 21.7082 45.1028 21.6738L23.342 20.1194ZM40.0071 34.1351H24.9647C24.8646 34.1073 24.7884 34.0226 24.7735 33.9171L23.2471 23.2321L44.8734 24.7808C44.495 25.5525 43.8071 26.9308 42.9066 28.7237L42.884 28.7686C42.37 29.7919 41.8191 30.8858 41.2682 31.9778L40.7357 33.0328L40.5338 33.4323L40.4578 33.609C40.3765 33.8357 40.2149 34.022 40.0071 34.1351ZM38.8082 45.0394C39.6686 45.0394 40.366 44.3419 40.366 43.4816C40.366 42.6213 39.6686 41.9239 38.8082 41.9239C37.9479 41.9239 37.2505 42.6213 37.2505 43.4816C37.2505 44.3419 37.9479 45.0394 38.8082 45.0394ZM27.9041 43.4816C27.9041 44.3419 27.2066 45.0394 26.3463 45.0394C25.486 45.0394 24.7886 44.3419 24.7886 43.4816C24.7886 42.6213 25.486 41.9239 26.3463 41.9239C27.2066 41.9239 27.9041 42.6213 27.9041 43.4816Z" fill="#349590"/>
</svg>
